# xmcd
#
# Track frame offsets: 
#        183
#        11105
#        21640
#        32183
#        42855
#        54853
#        66128
#        77048
#        86660
#        96293
#        108288
#        119948
#        134648
#        146603
#        158455
#        169088
#        180713
#        192413
#        203985
#        216673
#        229783
#        242410
#        254520
#
# Disc length: 3540 seconds
#
# Revision: 3
# Processed by: cddbd v1.5.2PL0 Copyright (c) Steve Scherf et al.
# Submitted via: ExactAudioCopy v1.0b1
#
DISCID=540dd217
DTITLE=Jimmy Reed - Vee-Jay Years - Disc 3
DYEAR=1994
DGENRE=Blues
TTITLE0=You 'n That Sack
TTITLE1=Going To New York
TTITLE2=I Told You Baby
TTITLE3=Take Out Some Insurance
TTITLE4=I'm Nervous
TTITLE5=You Know I Love You
TTITLE6=Baby, What You Want Me To Do
TTITLE7=Goin' By The River (Part 1)
TTITLE8=Goin' By The River (Part 2)
TTITLE9=Where Can You Be
TTITLE10=Hush Hush
TTITLE11=I Was So Wrong
TTITLE12=Blue Blue Water
TTITLE13=Please Don't
TTITLE14=Found Love
TTITLE15=You Gonna Need My Help
TTITLE16=Hold Me Close
TTITLE17=Come Love
TTITLE18=Big Boss Man
TTITLE19=Meet Me
TTITLE20=I Got The Blues
TTITLE21=Sugar Sugar
TTITLE22=Got Me Chasing You
EXTD=
EXTT0=
EXTT1=
EXTT2=
EXTT3=
EXTT4=
EXTT5=
EXTT6=
EXTT7=
EXTT8=
EXTT9=
EXTT10=
EXTT11=
EXTT12=
EXTT13=
EXTT14=
EXTT15=
EXTT16=
EXTT17=
EXTT18=
EXTT19=
EXTT20=
EXTT21=
EXTT22=
PLAYORDER=
